<svg width="20" height="20" viewBox="0 0 20 20" fill="none" xmlns="http://www.w3.org/2000/svg">
<path d="M19.8598 7.40725C19.6893 6.84671 19.3487 6.35773 18.8883 6.01261C18.4279 5.66749 17.8723 5.48456 17.3035 5.49087H13.662L12.5559 1.93016C12.382 1.36968 12.0402 0.88073 11.5799 0.533829C11.1196 0.186928 10.5645 0 9.99465 0C9.42482 0 8.86972 0.186928 8.40939 0.533829C7.94905 0.88073 7.60728 1.36968 7.43335 1.93016L6.32732 5.49087H2.68582C2.11884 5.49171 1.56661 5.67759 1.10802 6.02197C0.649428 6.36635 0.307926 6.85161 0.132295 7.40844C-0.0433363 7.96528 -0.0441136 8.5652 0.130074 9.12251C0.304261 9.67983 0.644504 10.166 1.1022 10.5117L4.06607 12.75L2.9392 16.3547C2.7571 16.9137 2.75479 17.5186 2.93263 18.0791C3.11046 18.6397 3.45892 19.1258 3.92605 19.4651C4.38517 19.8153 4.94156 20.0029 5.5123 20C6.08303 19.997 6.63757 19.8037 7.09329 19.4487L9.99465 17.2431L12.8968 19.4462C13.3551 19.7944 13.9085 19.9835 14.4774 19.9863C15.0463 19.9892 15.6015 19.8057 16.0631 19.4621C16.5246 19.1185 16.8688 18.6326 17.0462 18.0743C17.2235 17.5159 17.2249 16.9139 17.0501 16.3547L15.9232 12.75L18.8904 10.5117C19.3534 10.1704 19.6976 9.68417 19.8722 9.12506C20.0468 8.56594 20.0424 7.96362 19.8598 7.40725Z" fill="#05141f"/>
</svg>
